<?xml version="1.0" standalone="no"?>
<!DOCTYPE svg PUBLIC "-//W3C//DTD SVG 20010904//EN"
 "http://www.w3.org/TR/2001/REC-SVG-20010904/DTD/svg10.dtd">
<svg version="1.0" xmlns="http://www.w3.org/2000/svg"
 width="1255.000000pt" height="1255.000000pt" viewBox="0 0 1255.000000 1255.000000"
 preserveAspectRatio="xMidYMid meet">
<metadata>
Created by potrace 1.14, written by Peter Selinger 2001-2017
</metadata>
<g transform="translate(0.000000,1255.000000) scale(0.100000,-0.100000)"
fill="#000000" stroke="none">
<path d="M9673 11269 c-170 -36 -371 -118 -513 -210 -83 -54 -225 -198 -269
-272 -141 -239 -146 -505 -16 -852 42 -111 129 -289 203 -416 83 -142 161
-297 178 -354 12 -42 15 -89 12 -194 -3 -123 -5 -143 -24 -168 -33 -45 -103
-93 -134 -93 -16 0 -79 20 -142 44 -307 120 -691 197 -1151 231 -300 23 -1125
17 -1327 -9 -642 -82 -1503 -328 -2335 -668 -93 -38 -278 -114 -411 -168 -553
-225 -912 -409 -1305 -666 -682 -447 -1232 -1045 -1414 -1539 -99 -268 -290
-603 -594 -1039 -23 -32 -41 -62 -41 -66 0 -8 92 -82 189 -153 228 -167 591
-275 1072 -318 l137 -12 49 31 c55 35 262 135 367 177 101 39 236 71 356 84
290 29 566 22 774 -20 54 -11 151 -27 215 -35 423 -56 884 -175 1168 -302 438
-196 743 -498 823 -814 44 -177 97 -599 145 -1158 15 -168 32 -367 39 -442 9
-101 9 -138 1 -138 -34 0 -69 -72 -81 -167 -6 -48 -5 -53 12 -53 14 0 23 13
34 48 11 35 20 47 35 47 19 0 21 -10 30 -135 7 -90 16 -145 27 -166 27 -50
123 -132 291 -247 164 -113 278 -210 303 -259 14 -27 16 -28 37 -13 37 26 66
18 109 -27 l39 -43 -6 50 c-11 76 -39 133 -69 141 -15 3 -35 4 -46 1 -14 -4
-30 10 -66 57 -26 33 -70 89 -97 124 l-50 63 39 -17 c78 -34 247 -84 367 -108
247 -51 626 -93 639 -73 12 19 39 -3 78 -62 l35 -52 8 42 c19 93 -22 152 -111
164 -220 29 -525 124 -727 228 l-70 36 61 1 c89 0 226 20 249 36 34 24 71 17
99 -18 19 -25 28 -30 37 -21 19 19 1 83 -32 116 -24 24 -35 28 -62 23 -133
-23 -196 -27 -327 -22 -80 3 -171 11 -204 17 -53 11 -66 20 -143 92 -46 44
-91 93 -99 108 -32 63 -69 901 -54 1249 6 144 14 212 35 305 30 132 98 346
140 440 l27 60 25 -30 c206 -251 569 -810 828 -1275 32 -58 98 -159 147 -224
50 -65 86 -122 81 -125 -53 -36 -57 -128 -11 -218 18 -35 35 -63 39 -63 4 0 9
29 11 64 4 66 25 106 56 106 8 0 59 -42 113 -94 94 -89 105 -96 182 -121 147
-48 363 -158 564 -287 51 -33 96 -57 101 -54 13 8 38 -23 58 -72 9 -24 20 -40
24 -35 8 8 14 88 11 146 -1 33 -33 67 -63 67 -25 1 -73 41 -167 141 l-61 66
48 -8 c178 -28 808 -15 843 17 15 14 19 13 38 -7 12 -13 21 -29 21 -36 0 -7
11 -13 25 -13 22 0 25 4 25 35 0 24 -9 44 -29 67 l-29 33 -184 7 c-168 6 -237
13 -492 49 l-89 13 79 21 c108 29 234 84 234 101 0 21 11 17 47 -18 l33 -32 0
46 c0 55 -29 98 -66 98 -14 0 -50 -9 -82 -19 -159 -53 -442 -101 -600 -102
l-107 -1 -73 42 c-55 32 -90 63 -145 127 -202 236 -467 776 -620 1263 -66 210
-115 393 -123 466 l-7 53 59 16 c433 120 642 198 944 351 378 191 678 409 970
703 407 410 721 928 878 1446 48 160 60 183 160 317 109 145 171 247 252 413
164 337 248 668 271 1070 17 290 -10 467 -107 695 -68 162 -197 367 -304 484
-51 56 -104 142 -124 201 -24 69 -24 225 0 285 52 133 179 234 410 324 264
104 491 118 894 55 213 -33 241 -34 269 -12 30 25 24 58 -20 108 -53 60 -415
226 -731 335 -54 19 -68 28 -73 49 -4 14 -24 64 -46 109 -113 244 -296 390
-547 438 -103 20 -267 17 -379 -7z"/>
</g>
</svg>
